<svg xmlns="http://www.w3.org/2000/svg" viewBox="0 0 586 559"><style>.st3{fill:#e24329}.st4{fill:#fca326}</style><path class="st3" d="m293.026 434.983 62.199-191.322H230.918l62.108 191.322z"/><path class="st4" d="m143.798 243.662-18.941 58.126c-1.714 5.278.137 11.104 4.661 14.394l163.509 118.801-149.229-191.321z"/><path class="st3" d="M143.798 243.662h87.12l-37.494-115.224c-1.919-5.895-10.282-5.895-12.27 0l-37.356 115.224z"/><path class="st4" d="m442.346 243.662 18.873 58.126c1.714 5.278-.137 11.104-4.661 14.394L293.026 434.983l149.32-191.321z"/><path class="st3" d="M442.346 243.662h-87.12l37.425-115.224c1.919-5.895 10.282-5.895 12.27 0l37.425 115.224z"/><path d="m293.026 434.983 62.199-191.321h87.121zm0 0L143.798 243.662h87.12z" style="fill:#fc6d26"/></svg>